<?xml version="1.0" encoding="UTF-8"?>
<svg id="Layer_1" data-name="Layer 1" xmlns="http://www.w3.org/2000/svg" viewBox="0 0 1296.39 1296.39">
  <defs>
    <style>
      .cls-1 {
        fill: #212427;
      }

      .cls-2 {
        fill: none;
        stroke: #010101;
        stroke-miterlimit: 10;
        stroke-width: 2px;
      }
    </style>
  </defs>
  <path class="cls-2" d="M496.75,80.24c-5.52-1.56-10.95-3.33-19.68.73-3.94,1.83-6.58,4.31-7.39,7.2-4.14,2.04-56.89,22.25-98.67,39.11-16.52,6.67-32.07,13.94-37.91,17.78-34.75,22.81-33.13,17.18-72.97,83.41-40.38,67.11-143.37,234-145.59,237.56s.76,5.89,6.99,10.34,185.9,129.66,185.9,129.66c0,0,5.47,5.52,12.31-.06,6.83-5.57,40.13-34.16,40.13-34.16v614.22s-.22,6.6,4.89,7.11c6.65.67,554.94.87,562.96,0,8.8-.96,8.33-1.89,8.6-6.66.22-4.02,0-615.52,0-615.52,0,0,31.63,27.55,42.52,35.88,1.68,1.28,2.96,2.82,7.91.42,4.98-2.43,194.48-135.6,194.37-135.71,0,0,2.86-1.71.63-5.22-2.23-3.51-174.59-284.3-177.52-287.81-7.68-9.22-22.38-20.91-33.35-28.5-15.63-10.81-62.34-29.48-71.48-32.74-15.89-5.67-72.5-29.21-72.5-29.21,0,0-5.93-10.77-20.89-9.85-13.62.84-16.48,19.5-161.39,18.67-118.68-.68-123.57-10.12-147.85-16.63Z"/>
  <path class="cls-2" d="M299.06,170.71s32.96,28.22,41.63,50.22c8.67,22,15.11,73.78,16.22,94,1.11,20.22.67,94.44,0,112.44s.02,84.89.68,98.22c.66,13.33.13,39.29,2.28,46.2"/>
  <path class="cls-2" d="M995.88,169.88c-3.61,3.64-35.83,40.53-40.5,49.97-4.67,9.44-10.33,45.22-11.78,57.89s-6.74,107.19-5.41,124.74.67,121.78.67,136.89-1.41,32.57-1.41,32.57"/>
  <path class="cls-1" d="M589.67,455.78s32.56,13.96,86.07,5.36,87.39-33.23,87.39-33.23c0,0-58.61,13.79-89.71,18.78-32.33,5.19-83.75,9.08-83.75,9.08Z"/>
  <path class="cls-1" d="M757.02,338.41c-.08.03-.15-.15-.21-.23-.81-1.4-1.23-3.04-1.07-4.65.14-1.69-.23-3.38-.44-5.06-5.66-37.91-27.36-72.71-67.19-80.19-32.03-5.69-71.85,2.7-96.01,25.27-23.87,22.63-30.68,58.39-25.28,89.92.21.6.71,1.17.5,1.8-.51,1.03-.49,2.2-.55,3.27,0,0-1.71.7-1.71.7-.85-.95-1.45-2.07-2.37-2.97-.22-.19-.23-.43-.27-.66.1-2.25-.46-4.46-.62-6.68-.53-5.28-.75-10.57-.63-15.86.29-26.34,8.95-53.63,28.65-71.93,25.14-23.3,65.65-31.77,98.98-26.59,38.11,6.46,60.64,36.8,68.72,72.89.95,4.31,1.75,8.66,2.25,13.06.05.74.25,1.92.42,2.66.42,2.13-.31,3.82-1.36,5.53,0,0-1.82-.3-1.82-.3h0Z"/>
  <path class="cls-1" d="M660.57,343.28c-116.23,18.67-207.79,50.4-204.51,70.86,3.29,20.46,100.18,21.91,216.41,3.24,116.23-18.67,207.79-50.4,204.51-70.86-3.29-20.46-100.18-21.91-216.41-3.24ZM664.34,366.78c-42.99,6.91-85.84,3.78-85.84,3.78,25.48-6.13,53.81-11.81,83.78-16.63,30.99-4.98,60.6-8.53,87.43-10.67,0,0-42.38,16.61-85.37,23.52Z"/>
  <path class="cls-1" d="M675.5,427.82c-54.32,8.73-110.51,12.69-154.14,10.88-21.93-.91-47.05-3.48-60.92-10.03-.19,2.54-.13,5.26.34,8.13,3.29,20.46,100.18,21.91,216.41,3.24.09-.01.18-.03.27-.04s.18-.03.27-.04c116.23-18.67,207.79-50.4,204.51-70.86-.6-3.75-1.76-7.05-3.16-9.91-24.94,23.76-110.9,53.74-203.57,68.63Z"/>
</svg>