<?xml version="1.0" encoding="UTF-8"?>
<svg id="Layer_1" data-name="Layer 1" xmlns="http://www.w3.org/2000/svg" viewBox="0 0 1296.39 1296.39">
  <defs>
    <style>
      .cls-1 {
        fill: none;
        stroke: #010101;
        stroke-miterlimit: 10;
      }

      .cls-2 {
        fill: #212427;
      }
    </style>
  </defs>
  <path class="cls-1" d="M496.75,80.24c-5.52-1.56-10.95-3.33-19.68.73-3.94,1.83-6.58,4.31-7.39,7.2-4.14,2.04-56.89,22.25-98.67,39.11-16.52,6.67-32.07,13.94-37.91,17.78-34.75,22.81-33.13,17.18-72.97,83.41-40.38,67.11-143.37,234-145.59,237.56s.76,5.89,6.99,10.34,185.9,129.66,185.9,129.66c0,0,5.47,5.52,12.31-.06,6.83-5.57,40.13-34.16,40.13-34.16v614.22s-.22,6.6,4.89,7.11c6.65.67,554.94.87,562.96,0,8.8-.96,8.33-1.89,8.6-6.66.22-4.02,0-615.52,0-615.52,0,0,31.63,27.55,42.52,35.88,1.68,1.28,2.96,2.82,7.91.42,4.98-2.43,194.48-135.6,194.37-135.71,0,0,2.86-1.71.63-5.22-2.23-3.51-174.59-284.3-177.52-287.81-7.68-9.22-22.38-20.91-33.35-28.5-15.63-10.81-62.34-29.48-71.48-32.74-15.89-5.67-72.5-29.21-72.5-29.21,0,0-5.93-10.77-20.89-9.85-13.62.84-16.48,19.5-161.39,18.67-118.68-.68-123.57-10.12-147.85-16.63Z"/>
  <path class="cls-1" d="M299.06,170.71s32.96,28.22,41.63,50.22c8.67,22,15.11,73.78,16.22,94,1.11,20.22.67,94.44,0,112.44s.02,84.89.68,98.22c.66,13.33.13,39.29,2.28,46.2"/>
  <path class="cls-1" d="M995.88,169.88c-3.61,3.64-35.83,40.53-40.5,49.97-4.67,9.44-10.33,45.22-11.78,57.89s-6.74,107.19-5.41,124.74.67,121.78.67,136.89-1.41,32.57-1.41,32.57"/>
  <path class="cls-1" d="M469.68,88.16s28.91,90.02,84.02,121.73,136.75,37.78,198.91-5.59c61.24-42.73,74.27-116.25,74.27-116.25"/>
  <path class="cls-1" d="M493.34,79.31c-.69.03-6.14.88-2.4,9.73s25.94,70.81,58.61,95.04c32.67,24.22,56.22,33.11,104.67,30.67s89.45-28.02,104.67-43.11c22.37-22.19,47.39-76.51,48.11-87.33.44-6.67-4.38-5.51-4.38-5.51"/>
  <path class="cls-2" d="M779.95,361.98s11.23,7.11,31.56,7.11,34.34-7.11,34.34-7.11c0,0-22.52,1.62-34.34,1.62s-31.56-1.62-31.56-1.62Z"/>
  <path class="cls-2" d="M848.35,328.29c-.53-.48-.82-.82-.99-1.11-.11-.21-.2-.38-.12-.59.19-.25.31-.66.28-1,.46-21.44-11.79-36.27-33.9-35.97-16.23-.16-29.22,7.88-33.68,23.9-1.04,3.59-1.6,7.35-1.65,11.08.03.77-.17,1.65.35,2.26.01.06.06.13-.12.2-.57.27-.93.72-1.31,1.13,0,0-1.8.43-1.8.43-.54-.42-.99-.94-1.61-1.29-.19-.09-.15-.19-.14-.29.47-.78.29-1.75.41-2.63,1.86-23.1,15.88-38.01,39.53-38.05,10.74-.3,22.66,2.66,29.78,11.35,6.37,7.53,8.45,17.46,8.35,27.04,0,.61-.13,1.5.06,2.09.15,1.09-.63,1.72-1.68,2.04,0,0-1.75-.58-1.75-.58h0Z"/>
  <path class="cls-2" d="M812.89,324.54c-44.15,0-79.95,6.3-79.95,14.07s35.79,14.07,79.95,14.07,79.95-6.3,79.95-14.07-35.79-14.07-79.95-14.07ZM812.89,333.46c-16.33,0-32.01-3.71-32.01-3.71,9.8-.75,20.63-1.17,32.01-1.17s22.95.45,33.01,1.25c0,0-16.68,3.63-33.01,3.63Z"/>
  <path class="cls-2" d="M813.39,356.73c-20.64,0-41.68-1.87-57.73-5.14-8.07-1.64-17.21-4.09-21.96-7.34-.22.93-.36,1.94-.36,3.03,0,7.77,35.79,14.07,79.95,14.07.03,0,.07,0,.1,0s.07,0,.1,0c44.15,0,79.95-6.3,79.95-14.07,0-1.42-.23-2.72-.58-3.86-10.65,7.32-44.26,13.3-79.47,13.3Z"/>
</svg>