<?xml version="1.0" encoding="UTF-8"?>
<svg id="Layer_1" data-name="Layer 1" xmlns="http://www.w3.org/2000/svg" viewBox="0 0 1200 1400">
  <defs>
    <style>
      .cls-1 {
        fill: #fff;
      }

      .cls-2 {
        fill: none;
        stroke: #010101;
        stroke-miterlimit: 10;
      }

      .cls-3 {
        fill: #e9e8e8;
      }
    </style>
  </defs>
  <rect class="cls-1" width="1200" height="1400"/>
  <path class="cls-3" d="M448.96,144.37c-5.52-1.56-10.95-3.33-19.68.73-3.94,1.83-6.58,4.31-7.39,7.2-4.14,2.04-56.89,22.25-98.67,39.11-16.52,6.67-32.07,13.94-37.91,17.78-34.75,22.81-33.13,17.18-72.97,83.41-40.38,67.11-143.37,234-145.59,237.56s.76,5.89,6.99,10.34,185.9,129.66,185.9,129.66c0,0,5.47,5.52,12.31-.06,6.83-5.57,40.13-34.16,40.13-34.16v614.22s-.22,6.6,4.89,7.11c6.65.67,554.94.87,562.96,0,8.8-.96,8.33-1.89,8.6-6.66.22-4.02,0-615.52,0-615.52,0,0,31.63,27.55,42.52,35.88,1.68,1.28,2.96,2.82,7.91.42,4.98-2.43,194.48-135.6,194.37-135.71,0,0,2.86-1.71.63-5.22-2.23-3.51-174.59-284.3-177.52-287.81-7.68-9.22-22.38-20.91-33.35-28.5-15.63-10.81-62.34-29.48-71.48-32.74-15.89-5.67-72.5-29.21-72.5-29.21,0,0-5.93-10.77-20.89-9.85-13.62.84-16.48,19.5-161.39,18.67-118.68-.68-123.57-10.12-147.85-16.63Z"/>
  <path class="cls-2" d="M251.26,234.84s32.96,28.22,41.63,50.22c8.67,22,15.11,73.78,16.22,94,1.11,20.22.67,94.44,0,112.44s.02,84.89.68,98.22c.66,13.33.13,39.29,2.28,46.2"/>
  <path class="cls-2" d="M948.09,234.02c-3.61,3.64-35.83,40.53-40.5,49.97-4.67,9.44-10.33,45.22-11.78,57.89s-6.74,107.19-5.41,124.74.67,121.78.67,136.89-1.41,32.57-1.41,32.57"/>
  <path class="cls-2" d="M421.89,152.3s28.91,90.02,84.02,121.73c55.11,31.7,136.75,37.78,198.91-5.59,61.24-42.73,74.27-116.25,74.27-116.25"/>
  <path class="cls-2" d="M445.55,143.44c-.69.03-6.14.88-2.4,9.73s25.94,70.81,58.61,95.04c32.67,24.22,56.22,33.11,104.67,30.67s89.45-28.02,104.67-43.11c22.37-22.19,47.39-76.51,48.11-87.33.44-6.67-4.38-5.51-4.38-5.51"/>
</svg>