<?xml version="1.0" encoding="UTF-8"?>
<svg id="Layer_1" data-name="Layer 1" xmlns="http://www.w3.org/2000/svg" viewBox="0 0 640.22 160">
  <defs>
    <style>
      .cls-1 {
        fill: #fff;
      }
    </style>
  </defs>
  <circle class="cls-1" cx="68.39" cy="80" r="61.28"/>
  <path d="M88.31,127.41l-41.76-9.77c-1.66-.39-2.69-2.05-2.3-3.71.39-1.66,2.05-2.69,3.71-2.3l35.79,8.38,4.32-17.83c.4-1.66,2.07-2.67,3.73-2.27,1.66.4,2.68,2.07,2.27,3.73l-5.76,23.78Z"/>
  <circle cx="71.97" cy="75.93" r="10.77"/>
  <path d="M20.34,70.27c-2.03,0-3.89-1.35-4.46-3.4-.68-2.47.76-5.02,3.23-5.7l79.34-21.96c2.47-.68,5.02.76,5.7,3.23.68,2.47-.76,5.02-3.23,5.7l-79.34,21.96c-.41.11-.83.17-1.24.17Z"/>
  <path d="M106.98,75.4c-1.18,0-2.36-.45-3.27-1.35l-31.47-31.3c-1.81-1.8-1.82-4.74-.02-6.55,1.8-1.81,4.74-1.82,6.55-.02l31.47,31.3c1.81,1.8,1.82,4.74.02,6.55-.91.91-2.1,1.37-3.28,1.37Z"/>
  <path d="M54.99,101.8c-.46,0-.92-.1-1.35-.31l-15.55-7.54c-.78-.38-1.37-1.07-1.62-1.91-.25-.84-.13-1.74.33-2.48l12.8-20.96c.89-1.46,2.79-1.91,4.25-1.03s1.91,2.79,1.03,4.25l-11.03,18.06,8.68,4.21.2-1.43c.24-1.69,1.81-2.87,3.5-2.62,1.69.24,2.86,1.81,2.62,3.49l-.8,5.62c-.14.98-.74,1.83-1.61,2.29-.45.24-.95.36-1.45.36Z"/>
  <path d="M94.43,106.01c-2.82,0-6.74-1.15-9.76-4.74-1.1-1.31-.93-3.25.38-4.35,1.31-1.1,3.25-.93,4.35.38,2.29,2.73,5.13,2.53,5.51,2.49,1.51-.51,3.18.21,3.82,1.7.68,1.57-.04,3.38-1.61,4.06-.64.28-1.58.46-2.7.46ZM94.68,99.88s0,0,0,0c0,0,0,0,0,0Z"/>
  <path d="M227.8,110.65h-36.87v-61.12h10.42v53.07h26.44v8.06Z"/>
  <path d="M257.22,72.12h8.93v27.23c0,4.99.7,9.89,1.31,11.3h-8.67c-.44-.88-.79-2.8-.96-4.99-3.42,4.03-7.88,6.04-12.52,6.04-7.62,0-13.14-5.34-13.14-15.41s.7-15.24-.44-24.17h9.28c.88,8.41.35,14.19.35,22.77,0,7.09,2.8,8.93,6.31,8.93s9.54-3.42,9.54-13.31v-18.39Z"/>
  <path d="M306.78,113.19c0,16.29-7.09,23.64-18.13,23.64-4.9,0-9.37-.88-13.84-3.41l.7-6.92c4.29,2.19,8.14,3.15,11.56,3.15,7.27,0,11.03-5.95,11.03-16.72v-6.22c-3.15,3.42-6.66,4.82-11.12,4.82-9.37,0-15.76-7.09-15.76-17.95,0-14.01,9.11-22.33,24.08-22.33,4.64,0,6.57.26,11.47,1.58v40.37ZM298.11,80c-2.01-.35-2.8-.53-4.55-.53-8.06,0-12.79,5.25-12.79,13.84,0,6.13,2.98,9.63,7.62,9.63,5.6,0,9.72-3.76,9.72-15.15v-7.79Z"/>
  <path d="M326.13,111.52c-8.84,0-14.97-6.48-14.97-18.3,0-13.66,8.84-22.07,22.85-22.07,4.73,0,7.88.44,12.87,2.01v26.45c0,5.17.61,11.03.61,11.03h-7.88s-.44-4.2-.53-5.6c-2.89,4.29-8.06,6.48-12.96,6.48ZM338.3,80.09c-2.28-.61-4.12-.7-5.95-.7-7.27,0-12,5.25-12,14.27,0,6.22,2.89,9.63,7.53,9.63,5.69,0,10.42-5.43,10.42-13.66v-9.55Z"/>
  <path d="M362.73,110.65h-8.58v-25.83c0-5.69-.26-8.14-1.49-12.7h8.32c.79,2.8.96,3.77,1.05,7.44,3.06-5.87,6.13-8.32,10.86-8.32,1.75,0,2.54.35,4.38,1.14v7.53c-1.66-.35-2.54-.44-3.68-.44-6.74,0-10.86,5.95-10.86,16.03v15.15Z"/>
  <path d="M410.97,97.26c6.39,4.47,12,6.39,17.08,6.39,5.34,0,8.84-3.15,8.84-7.79,0-4.29-2.36-6.83-9.81-11.03-11.91-6.74-16.99-12.08-16.99-20.14,0-9.63,6.57-16.03,18.91-16.03,7.09,0,12.26,1.23,18.83,4.99l-2.45,8.49c-5.87-3.94-10.07-5.25-15.32-5.25-5.87,0-9.11,2.71-9.11,7.62,0,3.85,3.15,6.48,10.07,10.6,10.95,6.57,16.72,10.95,16.72,20.05s-6.66,16.37-19.79,16.37c-6.65,0-14.54-2.28-20.05-6.39l3.07-7.88Z"/>
  <path d="M483.03,108.38c-3.94,2.45-7.53,3.42-12.08,3.42-10.86,0-17.6-7.27-17.6-18.83,0-12.87,7.88-21.8,19.18-21.8,8.23,0,13.4,4.38,13.4,11.3,0,8.06-7.71,13.05-20.05,13.05-1.05,0-1.75,0-3.33-.09.61,5.78,3.94,9.19,9.11,9.19,3.59,0,7.44-1.31,11.38-3.85v7.62ZM472.09,78.35c-4.55,0-8.67,4.82-9.37,10.6,1.49.26,2.19.35,3.42.35,6.66,0,10.86-2.54,10.86-6.48,0-2.45-2.1-4.47-4.9-4.47Z"/>
  <path d="M524.45,113.2c0,16.29-7.09,23.64-18.13,23.64-4.9,0-9.37-.88-13.84-3.41l.7-6.92c4.29,2.19,8.14,3.15,11.56,3.15,7.27,0,11.03-5.95,11.03-16.72v-6.22c-3.15,3.42-6.66,4.82-11.12,4.82-9.37,0-15.76-7.09-15.76-17.95,0-14.01,9.11-22.33,24.08-22.33,4.64,0,6.57.26,11.47,1.58v40.37ZM515.78,80.01c-2.01-.35-2.8-.53-4.55-.53-8.06,0-12.79,5.25-12.79,13.84,0,6.13,2.98,9.63,7.62,9.63,5.6,0,9.72-3.76,9.72-15.15v-7.79Z"/>
  <path d="M556.76,72.13h8.93v27.23c0,4.99.7,9.89,1.31,11.3h-8.67c-.44-.88-.79-2.8-.96-4.99-3.42,4.03-7.88,6.04-12.52,6.04-7.62,0-13.14-5.34-13.14-15.41s.7-15.24-.44-24.17h9.28c.88,8.41.35,14.19.35,22.77,0,7.09,2.8,8.93,6.31,8.93s9.54-3.42,9.54-13.31v-18.39Z"/>
  <path d="M581.45,110.66h-8.58v-25.83c0-5.69-.26-8.14-1.49-12.7h8.32c.79,2.8.96,3.77,1.05,7.44,3.06-5.87,6.13-8.32,10.86-8.32,1.75,0,2.54.35,4.38,1.14v7.53c-1.66-.35-2.54-.44-3.68-.44-6.74,0-10.86,5.95-10.86,16.03v15.15Z"/>
  <path d="M614.28,111.8c-11.38,0-18.74-7.36-18.74-20.23s7.18-20.58,18.74-20.58,18.83,7.27,18.83,20.05-7.44,20.75-18.83,20.75ZM623.92,90.96c0-7.62-3.59-12.08-9.54-12.08s-9.63,4.73-9.63,12.87,3.33,12.17,9.37,12.17,9.81-4.38,9.81-12.96Z"/>
</svg>