<?xml version="1.0" encoding="UTF-8"?>
<svg id="Layer_1" data-name="Layer 1" xmlns="http://www.w3.org/2000/svg" viewBox="0 0 1920 453.49">
  <defs>
    <style>
      .cls-1 {
        fill: #212426;
      }

      .cls-2 {
        fill: #f4f4f4;
      }
    </style>
  </defs>
  <rect class="cls-2" width="1920" height="453.49"/>
  <path class="cls-1" d="M445.24,165.26c.21.22.54,1.34.6,1.6,1.07,4.56-19.97,13.74-46.73,20.04s-49.68,7.48-50.76,2.92c-.05-.21-.25-1.61-.21-1.84,0,0,3.25,1.3,5.76,1.38,15.48.45,38.53-4.3,44.47-5.6,18.27-3.98,39.64-11.88,46.87-18.51Z"/>
  <path class="cls-1" d="M380.06,191.99s8.08,3.92,20.35,1.03,19.43-10.4,19.43-10.4c0,0-13.3,4.46-20.43,6.14-7.41,1.75-19.34,3.23-19.34,3.23Z"/>
  <path class="cls-1" d="M394.29,165.61c-26.75,6.3-47.94,14.87-46.87,19.43s24.01,3.38,50.76-2.92c26.75-6.3,47.8-15.48,46.73-20.04s-23.86-2.77-50.61,3.53ZM395.97,173.07c-13.34,3.14-21.89-.13-21.89-.13,0,0,12.46-3.77,20.52-5.67s22.73-4.52,22.73-4.52c0,0-8.01,7.18-21.36,10.32Z"/>
  <path class="cls-1" d="M416.66,162.33c-.36-.33-.61-.52-.63-.94.04-.23.03-.46-.03-.69-2.89-13.52-12.57-20.76-26.35-17.32-6.14,1.45-12.12,4.83-15.03,10.62-2.21,4.2-2.78,9.17-2.22,13.85.1.79.22,1.57.38,2.34.12.48.14,1.01.47,1.38.01.04.04.08-.02.14-.21.24-.25.55-.33.82,0,0-.69.34-.69.34-.3-.19-.54-.45-.87-.61-.09-.03-.09-.1-.1-.15.08-.54-.14-1.07-.2-1.6-2.24-14.15,4.05-25.1,18.28-28.46,6.42-1.68,13.94-1.53,19.42,2.68,5.23,3.88,7.84,10.09,9.12,16.25.17.51-.04,1.03-.46,1.4,0,0-.76-.07-.76-.07h0Z"/>
  <g>
    <path class="cls-1" d="M401.78,148.31s4.18.64,5.31,2.44-5.31-2.44-5.31-2.44Z"/>
    <path class="cls-1" d="M407.12,151.57c-.51,0-1.81-.49-5.55-2.94l-1.47-.97,1.74.27c.18.03,4.36.69,5.58,2.62.24.38.26.68.05.89-.06.06-.14.14-.35.14ZM404.01,149.26c1,.6,1.93,1.12,2.51,1.38-.56-.59-1.55-1.05-2.51-1.38Z"/>
  </g>
  <path class="cls-1" d="M406.31,152.12c-.27-.84,1.91.17,2.64.97.87.97.76,1.89-.33,1.36s-2.05-1.53-2.31-2.33Z"/>
</svg>