<?xml version="1.0" encoding="UTF-8"?>
<svg id="Layer_1" data-name="Layer 1" xmlns="http://www.w3.org/2000/svg" viewBox="0 0 1920 453.49">
  <defs>
    <style>
      .cls-1 {
        stroke: #212426;
        stroke-miterlimit: 10;
        stroke-width: 2px;
      }

      .cls-1, .cls-2 {
        fill: #212426;
      }

      .cls-3 {
        fill: #fff;
      }
    </style>
  </defs>
  <rect class="cls-3" width="1920" height="453.49"/>
  <path class="cls-2" d="M523.47,161.36c.54.58,1.4,3.49,1.56,4.18,2.8,11.89-52.12,35.85-121.93,52.29-69.8,16.44-129.64,19.52-132.45,7.63-.13-.55-.65-4.2-.54-4.79,0,0,8.47,3.4,15.02,3.59,40.4,1.18,100.55-11.23,116.04-14.6,47.68-10.37,103.45-31,122.29-48.29Z"/>
  <path class="cls-2" d="M353.4,229.54s21.07,10.24,53.1,2.69c32.02-7.54,50.7-27.14,50.7-27.14,0,0-34.71,11.64-53.32,16.02-19.34,4.56-50.48,8.43-50.48,8.43Z"/>
  <path class="cls-2" d="M390.52,164.4c-69.8,16.44-125.1,38.81-122.3,50.7,2.8,11.89,62.64,8.81,132.45-7.63,69.8-16.44,124.73-40.39,121.93-52.29-2.8-11.89-62.27-7.23-132.07,9.22ZM394.9,183.87c-34.82,8.2-57.13-.35-57.13-.35,0,0,32.53-9.85,53.56-14.8s59.3-11.78,59.3-11.78c0,0-20.91,18.73-55.73,26.93Z"/>
  <path class="cls-2" d="M448.89,155.84c-.94-.86-1.59-1.37-1.64-2.46.1-.6.09-1.2-.07-1.79-7.55-35.27-32.81-54.16-68.75-45.18-16.03,3.78-31.64,12.61-39.23,27.7-5.75,10.95-7.25,23.92-5.78,36.15.26,2.06.58,4.1,1,6.12.31,1.24.37,2.64,1.22,3.61.04.11.11.2-.04.37-.54.63-.66,1.43-.87,2.15,0,0-1.79.89-1.79.89-.77-.51-1.41-1.17-2.26-1.59-.23-.09-.23-.25-.26-.4.2-1.41-.35-2.8-.52-4.18-5.86-36.93,10.56-65.5,47.7-74.26,16.75-4.39,36.38-4,50.69,6.99,13.65,10.12,20.45,26.32,23.8,42.41.45,1.33-.1,2.69-1.2,3.64,0,0-1.99-.18-1.99-.18h0Z"/>
  <path class="cls-1" d="M410.08,118.09s10.9,1.68,13.87,6.38-13.87-6.38-13.87-6.38Z"/>
  <path class="cls-2" d="M421.9,128.02c-.71-2.18,4.99.43,6.88,2.52,2.28,2.53,1.98,4.94-.86,3.56s-5.35-4-6.02-6.08Z"/>
</svg>