<svg width="17" height="17" viewBox="0 0 17 17" fill="none" xmlns="http://www.w3.org/2000/svg">
<path d="M7.32251 0.335205C7.9517 0.0888743 8.64839 0.0888743 9.27759 0.335205L15.1643 2.63989C15.5431 2.7883 15.8686 3.05004 16.0979 3.38989C16.3272 3.7298 16.4504 4.13238 16.4504 4.54419V12.0559C16.4504 12.4677 16.3272 12.8703 16.0979 13.2102C15.8686 13.5501 15.5431 13.8118 15.1643 13.9602L9.27759 16.2649C8.64839 16.5112 7.9517 16.5112 7.32251 16.2649L1.43579 13.9602C1.05695 13.8118 0.731506 13.5501 0.502197 13.2102C0.272929 12.8703 0.14972 12.4677 0.149658 12.0559V4.54419C0.14972 4.13238 0.272929 3.7298 0.502197 3.38989C0.731506 3.05004 1.05695 2.7883 1.43579 2.63989L7.32251 0.335205ZM1.59302 12.0559C1.59312 12.173 1.62789 12.287 1.69263 12.3831C1.7575 12.4792 1.84928 12.5534 1.95532 12.595L7.57837 14.7961V7.05591L1.59302 4.71216V12.0559ZM9.02173 7.05591V14.7961L14.6448 12.595L14.7229 12.5569C14.896 12.4556 15.007 12.2659 15.0071 12.0559V4.71216L9.02173 7.05591ZM2.87329 3.64478L8.29907 5.77075L10.011 5.09985L4.58618 2.97388L2.87329 3.64478ZM8.75806 1.70044C8.46326 1.58506 8.13684 1.58506 7.84204 1.70044L6.58911 2.19067L12.0129 4.31665L13.7249 3.64575L8.75806 1.70044Z" fill="black" stroke="black" stroke-width="0.3"/>
</svg>
