<svg width="16" height="16" viewBox="0 0 16 16" fill="none" xmlns="http://www.w3.org/2000/svg">
<path d="M8.92286 0.174425C8.32882 -0.0581417 7.67118 -0.0581417 7.07714 0.174425L1.19029 2.47962C0.839988 2.61685 0.538747 2.85892 0.326264 3.17394C0.113781 3.48897 2.89754e-05 3.86215 0 4.24431V11.7557C2.89754e-05 12.1379 0.113781 12.511 0.326264 12.8261C0.538747 13.1411 0.839988 13.3832 1.19029 13.5204L7.07714 15.8256C7.67118 16.0581 8.32882 16.0581 8.92286 15.8256L14.8097 13.5204C15.16 13.3832 15.4613 13.1411 15.6737 12.8261C15.8862 12.511 16 12.1379 16 11.7557V4.24431C16 3.86215 15.8862 3.48897 15.6737 3.17394C15.4613 2.85892 15.16 2.61685 14.8097 2.47962L8.92286 0.174425ZM7.48743 1.2607C7.81737 1.13156 8.18263 1.13156 8.51257 1.2607L13.8366 3.34538L11.7143 4.1774L5.87771 1.89082L7.48743 1.2607ZM4.28571 2.51337L10.1223 4.79995L8 5.63138L2.16343 3.34538L4.28571 2.51337ZM1.14457 4.1931L7.42857 6.65423V14.7166L1.60057 12.4341C1.46591 12.3813 1.3501 12.2883 1.26839 12.1672C1.18669 12.0461 1.14292 11.9026 1.14286 11.7557V4.24431C1.14286 4.22685 1.14343 4.20978 1.14457 4.1931ZM8.57143 14.7166V6.65423L14.8554 4.1931L14.8571 4.24431V11.7557C14.8571 12.0565 14.6749 12.3259 14.3994 12.4341L8.57143 14.7166Z" fill="black"/>
</svg>
