<?xml version="1.0" encoding="UTF-8"?>
<svg id="Layer_1" data-name="Layer 1" xmlns="http://www.w3.org/2000/svg" viewBox="0 0 884 1279">
  <defs>
    <style>
      .cls-1 {
        fill: #212427;
      }
    </style>
  </defs>
  <path class="cls-1" d="M791.1,297.5l-.9-.5-2-.6c.8.7,1.8,1.1,2.9,1.1h0Z"/>
  <path class="cls-1" d="M803.9,388.9l-1,.3"/>
  <path class="cls-1" d="M791.5,297.4c-.1,0-.2,0-.4-.1v.2c.2,0,.3,0,.4-.1h0Z"/>
  <path class="cls-1" d="M791.1,297.5h.1v-.1l-.1.1Z"/>
  <path class="cls-1" d="M803.1,388.7l1.5-.8.6-.3.5-.5c-1,.3-1.9.9-2.6,1.6h0Z"/>
  <path class="cls-1" d="M793.7,299.5l-1.4-1.4-1-.5c.5.9,1.3,1.6,2.4,1.9h0Z"/>
  <path class="cls-1" d="M430,1186.2c-1.2.5-2.2,1.3-2.9,2.3l.9-.6c.6-.6,1.5-1.3,2-1.7h0Z"/>
  <path class="cls-1" d="M641.2,1144.6c0-1.3-.6-1.1-.5,3.6,0-.4.2-.8.2-1.1.1-.8.2-1.6.3-2.5Z"/>
  <path class="cls-1" d="M619.3,1186.2c-1.2.5-2.2,1.3-2.9,2.3l.9-.6c.6-.6,1.5-1.3,2-1.7h0Z"/>
  <path class="cls-1" d="M281.3,1196.1c-.9-.8-2-1.3-3.1-1.4.9.4,1.9.9,2.5,1.2l.6.2Z"/>
  <path class="cls-1" d="M247.8,1164c-.1-1.3-.6-2.7-1.2-3.8.5,1.2.9,2.5,1.2,3.8h0Z"/>
  <path class="cls-1" d="M472.6,590.8c-45.9,19.7-98.1,42-165.6,42-28.3-.1-56.4-3.9-83.6-11.5l46.7,479.8c1.7,20.1,10.8,38.8,25.6,52.4s34.2,21.2,54.3,21.2c0,0,66.3,3.4,88.4,3.4,23.8,0,95.2-3.4,95.2-3.4,20.1,0,39.5-7.6,54.3-21.2s23.9-32.3,25.6-52.4l50.1-530.2c-22.4-7.6-44.9-12.7-70.4-12.7-44.1-.1-79.6,15.1-120.6,32.6h0Z"/>
  <path class="cls-1" d="M78.7,386.1l.8.7.5.3c-.4-.3-.8-.7-1.3-1Z"/>
  <path class="cls-1" d="M879.6,341.8l-7-35.5c-6.3-31.8-20.6-61.9-53.3-73.5-10.5-3.7-22.4-5.3-30.4-12.9-8-7.6-10.4-19.5-12.3-30.4-3.4-20.1-6.7-40.3-10.2-60.4-3-17.3-5.5-36.7-13.4-52.6-10.3-21.3-31.7-33.8-53-42-10.9-4.1-22.1-7.5-33.4-10.3-53.3-14-109.3-19.2-164-22.1-65.7-3.6-131.6-2.5-197.2,3.3-48.8,4.4-100.2,9.8-146.5,26.6-16.9,6.2-34.4,13.6-47.3,26.7-15.8,16.1-21,41-9.4,61,8.2,14.2,22.1,24.3,36.9,31,19.2,8.6,39.3,15.1,59.8,19.5,57.3,12.7,116.6,17.6,175.2,19.8,64.9,2.6,129.9.5,194.4-6.4,16-1.8,31.9-3.9,47.8-6.3,18.7-2.9,30.8-27.4,25.2-44.4-6.6-20.4-24.4-28.3-44.4-25.2-3,.5-5.9.9-8.9,1.3l-2.1.3c-6.8.9-13.6,1.7-20.4,2.4-14.1,1.5-28.1,2.8-42.3,3.7-31.6,2.2-63.3,3.2-95,3.3-31.1,0-62.3-.9-93.4-2.9-14.2-.9-28.3-2.1-42.4-3.5-6.4-.7-12.8-1.4-19.2-2.2l-6.1-.8-1.3-.2-6.3-.9c-12.9-1.9-25.8-4.2-38.6-6.9-1.3-.3-2.4-1-3.3-2-.8-1-1.3-2.3-1.3-3.6s.4-2.6,1.3-3.6,2-1.7,3.3-2h.2c11.1-2.4,22.2-4.4,33.4-6.1,3.7-.6,7.5-1.2,11.2-1.7h.1c7-.5,14-1.7,21-2.5,60.6-6.3,121.6-8.5,182.5-6.4,29.6.9,59.1,2.6,88.6,5.6,6.3.7,12.6,1.3,18.9,2.1,2.4.3,4.8.6,7.3.9l4.9.7c14.2,2.1,28.4,4.7,42.5,7.7,20.9,4.5,47.7,6,57,28.9,3,7.3,4.3,15.3,5.9,23l2.1,9.7c.1.2.1.4.1.5,4.9,22.9,9.8,45.9,14.8,68.8.4,1.7.4,3.4,0,5.1-.3,1.7-1,3.3-2,4.7s-2.3,2.6-3.7,3.5c-1.5.9-3.1,1.5-4.8,1.7h-.1l-3,.4-3,.4c-9.4,1.2-18.9,2.4-28.3,3.4-18.6,2.1-37.3,4-55.9,5.5-37.1,3.1-74.3,5.1-111.5,6.1-19,.5-38,.7-56.9.7-75.5-.1-151-4.4-226-13.1-8.1-1-16.2-2-24.4-3,6.3.8-4.6-.6-6.8-.9-5.2-.7-10.3-1.5-15.5-2.3-17.3-2.6-34.6-5.8-51.8-8.6-20.9-3.4-40.9-1.7-59.8,8.6-15.5,8.5-28.1,21.5-36,37.3-8.2,16.9-10.6,35.2-14.2,53.3-3.6,18.1-9.3,37.6-7.2,56.2,4.6,40.1,32.7,72.8,73.1,80.1,38,6.9,76.2,12.5,114.4,17.2,150.4,18.4,302.3,20.6,453.2,6.6,12.3-1.1,24.6-2.4,36.8-3.8,3.8-.4,7.7,0,11.3,1.3s6.9,3.3,9.7,6,4.8,6,6.1,9.6,1.8,7.5,1.4,11.3l-3.8,37.1c-7.7,75-15.4,150.1-23.1,225.1-8,78.8-16.1,157.6-24.2,236.3-2.3,22.2-4.6,44.4-6.9,66.5-2.2,21.8-2.5,44.4-6.7,65.9-6.5,33.9-29.5,54.8-63,62.4-30.7,7-62.1,10.7-93.6,10.9-34.9.2-69.8-1.4-104.7-1.2-37.3.2-82.9-3.2-111.7-31-25.3-24.4-28.8-62.5-32.2-95.5-4.6-43.7-9.1-87.3-13.6-131l-25.3-242.8-16.4-157.1c-.3-2.6-.6-5.2-.8-7.8-2-18.7-15.2-37.1-36.1-36.1-17.9.8-38.2,16-36.1,36.1l12.1,116.5,25.1,240.9c7.1,68.4,14.3,136.9,21.4,205.3,1.4,13.1,2.7,26.3,4.1,39.4,7.9,71.7,62.6,110.3,130.3,121.1,39.6,6.4,80.1,7.7,120.3,8.3,51.5.8,103.5,2.8,154.1-6.5,75-13.8,131.3-63.9,139.4-141.6,2.3-22.4,4.6-44.9,6.9-67.3,7.6-74.2,15.2-148.5,22.8-222.7l24.9-242.6,11.1-110.9c.6-5.5,2.9-10.7,6.6-14.8,3.7-4.1,8.7-6.9,14.1-7.9,21.5-4.2,42-11.3,57.2-27.7,24.4-26,29.3-59.9,20.7-94.1h0ZM72.4,365.8c.3-.2-.3,2.6-.5,4-.1-2,0-3.7.5-4ZM74.5,381.9c.2-.1.7.6,1.2,1.4-.8-.7-1.3-1.3-1.2-1.4h0ZM76.6,384.6c.7,1.3,1.1,2.1,0,0ZM80.7,388h.1c0,.1.2.2.3.4-.2-.2-.3-.3-.4-.4h0ZM800.8,383c-7.7,7.3-19.3,10.7-30.8,12.4-128.7,19.1-259.3,28.8-389.4,24.5-93.1-3.2-185.3-13.5-277.5-26.5-9-1.3-18.8-2.9-25-9.6-11.7-12.6-6-37.9-2.9-53,2.8-13.9,8.1-32.4,24.7-34.4,25.8-3,55.8,7.9,81.3,11.7,30.7,4.7,61.6,8.4,92.6,11.3,132.2,12,266.6,10.2,398.2-7.5,24-3.2,47.9-7,71.7-11.2,21.2-3.8,44.7-10.9,57.6,11,8.8,15,10,35,8.6,51.9-.5,7.4-3.8,14.3-9.1,19.4h0Z"/>
</svg>