<?xml version="1.0" encoding="UTF-8"?>
<svg id="Capa_1" data-name="Capa 1" xmlns="http://www.w3.org/2000/svg" viewBox="0 0 24 24">
  <defs>
    <style>
      .cls-1 {
        fill: #212427;
      }
    </style>
  </defs>
  <path class="cls-1" d="M22.68,0H1.32C.59,0,0,.59,0,1.32v21.36c0,.73.59,1.32,1.32,1.32h11.5v-9.29h-3.13v-3.62h3.13v-2.68c0-3.1,1.89-4.78,4.66-4.78.94,0,1.87.04,2.8.14v3.23h-1.93c-1.5,0-1.79.72-1.79,1.77v2.31h3.58l-.47,3.63h-3.11v9.29h6.11c.73,0,1.32-.58,1.33-1.31,0,0,0,0,0-.01V1.32C24,.59,23.41,0,22.68,0"/>
</svg>