<?xml version="1.0" encoding="UTF-8"?>
<svg id="Capa_1" data-name="Capa 1" xmlns="http://www.w3.org/2000/svg" viewBox="0 0 24 24">
  <defs>
    <style>
      .cls-1 {
        fill: #212427;
      }
    </style>
  </defs>
  <path class="cls-1" d="M12,0c-3.26,0-3.67,0-4.95.07-.99.02-1.98.21-2.91.56-.8.3-1.54.76-2.14,1.37-.61.6-1.08,1.34-1.37,2.14-.35.93-.54,1.92-.56,2.91-.07,1.28-.07,1.69-.07,4.95s0,3.67.07,4.95c.02.99.21,1.98.56,2.91.3.8.76,1.54,1.37,2.14.6.61,1.33,1.08,2.13,1.38.93.35,1.92.54,2.91.56,1.29.06,1.7.06,4.96.06s3.67,0,4.95-.07c.99-.02,1.98-.21,2.91-.56,1.61-.62,2.89-1.9,3.51-3.51.35-.93.54-1.92.56-2.91.07-1.28.07-1.69.07-4.95s0-3.67-.07-4.95c-.02-.99-.21-1.98-.56-2.91-.3-.8-.76-1.53-1.37-2.14-.6-.61-1.33-1.08-2.14-1.37-.93-.35-1.92-.54-2.91-.56-1.28-.07-1.69-.07-4.95-.07ZM12,2.16c3.2,0,3.59,0,4.85.07.76,0,1.52.15,2.23.41,1.05.4,1.88,1.23,2.28,2.28.26.71.4,1.47.41,2.23.06,1.27.07,1.65.07,4.85s0,3.59-.07,4.85c-.01.76-.16,1.52-.42,2.23-.2.52-.5.99-.9,1.38-.39.4-.86.71-1.38.9-.72.26-1.48.4-2.24.41-1.27.06-1.65.07-4.86.07s-3.59,0-4.86-.07c-.76-.01-1.52-.15-2.24-.42-.52-.19-.99-.5-1.38-.9-.4-.39-.71-.86-.9-1.38-.26-.72-.41-1.48-.42-2.24,0-1.26-.06-1.65-.06-4.84s0-3.59.06-4.86c.02-.77.16-1.52.43-2.24.19-.52.5-1,.9-1.38.38-.4.86-.71,1.38-.9.71-.27,1.46-.41,2.22-.42,1.27,0,1.65-.06,4.86-.06l.04.03ZM12,5.84c-3.4,0-6.16,2.76-6.16,6.16s2.76,6.16,6.16,6.16,6.16-2.76,6.16-6.16h0c0-3.4-2.76-6.16-6.16-6.16ZM12,16c-2.21,0-4-1.79-4-4s1.79-4,4-4,4,1.79,4,4-1.79,4-4,4ZM19.85,5.6c0,.8-.64,1.44-1.44,1.44s-1.44-.64-1.44-1.44.64-1.44,1.44-1.44,1.44.64,1.44,1.44h0Z"/>
</svg>