<?xml version="1.0" encoding="UTF-8"?>
<svg id="Capa_1" data-name="Capa 1" xmlns="http://www.w3.org/2000/svg" viewBox="0 0 24 24">
  <defs>
    <style>
      .cls-1 {
        fill: #212427;
      }
    </style>
  </defs>
  <path class="cls-1" d="M20.45,20.45h-3.56v-5.57c0-1.33,0-3-1.85-3s-2.14,1.44-2.14,2.94v5.67h-3.55v-11.49h3.41v1.56h0c.7-1.19,1.99-1.9,3.37-1.85,3.6,0,4.27,2.37,4.27,5.45v6.29h.05ZM5.34,7.43c-1.14,0-2.06-.92-2.06-2.06s.92-2.06,2.06-2.06,2.06.92,2.06,2.06h0c0,1.14-.92,2.06-2.06,2.06ZM7.12,20.43h-3.56v-11.43h3.56v11.43ZM22.23,0H1.77C.8-.01.01.76,0,1.73h0v20.54c.01.97.8,1.74,1.77,1.73,0,0,0,0,0,0h20.45c.97.01,1.76-.76,1.78-1.73V1.73c-.02-.97-.81-1.74-1.78-1.73h.01Z"/>
</svg>