<?xml version="1.0" encoding="UTF-8"?>
<svg id="Capa_1" data-name="Capa 1" xmlns="http://www.w3.org/2000/svg" viewBox="0 0 23.94 24">
  <defs>
    <style>
      .cls-1 {
        fill: #212427;
      }
    </style>
  </defs>
  <path class="cls-1" d="M11.97,0C5.34.05,0,5.46.06,12.08c.03,4.88,3.03,9.26,7.56,11.07-.17-1.14-.17-2.3,0-3.44l1.41-6c-.22-.54-.34-1.12-.33-1.71,0-1.66,1-2.91,2.17-2.91.83-.01,1.52.66,1.53,1.49,0,.07,0,.13-.01.2-.22,1.36-.55,2.7-1,4-.24.93.32,1.88,1.25,2.12.17.04.34.06.52.05,2.13,0,3.77-2.24,3.77-5.49.08-2.61-1.97-4.79-4.58-4.88-.14,0-.28,0-.42,0-2.86-.12-5.28,2.1-5.41,4.97,0,.08,0,.16,0,.23,0,.98.31,1.94.89,2.74.09.09.12.23.09.35l-.33,1.32c-.05.23-.17.27-.4.17-1.49-.69-2.43-2.88-2.43-4.65,0-3.78,2.75-7.25,7.92-7.25,4.16,0,7.39,3,7.39,6.92,0,4.14-2.61,7.46-6.23,7.46-1.09.04-2.13-.48-2.76-1.38l-.75,2.85c-.36,1.11-.86,2.17-1.5,3.15,6.33,1.95,13.05-1.61,15-7.94,1.95-6.33-1.61-13.05-7.94-15C14.33.18,13.15,0,11.97,0Z"/>
</svg>