<?xml version="1.0" encoding="UTF-8"?>
<svg id="Capa_1" data-name="Capa 1" xmlns="http://www.w3.org/2000/svg" viewBox="0 0 24 19.51">
  <defs>
    <style>
      .cls-1 {
        fill: #212427;
      }
    </style>
  </defs>
  <path class="cls-1" d="M24,2.32c-.9.4-1.85.66-2.83.78,1.02-.62,1.79-1.58,2.16-2.72-.98.56-2.06.96-3.17,1.17-1.86-1.98-4.97-2.08-6.95-.23-.99.93-1.55,2.23-1.56,3.59,0,.38.04.75.13,1.12-3.95-.19-7.64-2.05-10.14-5.12-.43.75-.65,1.61-.64,2.48,0,1.65.82,3.19,2.19,4.1-.79-.02-1.57-.23-2.26-.62v.06c0,2.34,1.65,4.36,3.95,4.82-.72.19-1.48.22-2.21.08.65,2,2.49,3.38,4.6,3.42-1.74,1.36-3.89,2.1-6.1,2.1-.39,0-.78-.02-1.17-.06,2.26,1.44,4.88,2.21,7.56,2.21,7.68.06,13.94-6.12,14-13.8,0-.07,0-.13,0-.2v-.63c.96-.69,1.78-1.55,2.44-2.53v-.02Z"/>
</svg>